<svg width="15" height="11" viewBox="0 0 15 11" fill="none" xmlns="http://www.w3.org/2000/svg">
<path d="M6.09269 1.4773C6.43064 1.13935 6.43064 0.591419 6.09269 0.253465C5.75474 -0.0844884 5.2068 -0.0844884 4.86885 0.253465L0.253465 4.86885C0.0844884 5.03783 0 5.2593 0 5.48077C0 5.59811 0.0233528 5.70999 0.0656643 5.81202C0.107895 5.91409 0.170495 6.00972 0.253465 6.09269L4.86885 10.7081C5.2068 11.046 5.75474 11.046 6.09269 10.7081C6.43064 10.3701 6.43064 9.82219 6.09269 9.48423L2.95461 6.34615H14.1346C14.6126 6.34615 15 5.95871 15 5.48077C15 5.00283 14.6126 4.61538 14.1346 4.61538H2.95461L6.09269 1.4773Z" fill="black"/>
</svg>
