<svg width="24" height="24" viewBox="0 0 24 24" fill="none" xmlns="http://www.w3.org/2000/svg">
<path d="M17.92 6.62C17.8185 6.37565 17.6243 6.18147 17.38 6.08C17.2598 6.02876 17.1307 6.00158 17 6H11C10.7348 6 10.4804 6.10536 10.2929 6.29289C10.1054 6.48043 10 6.73478 10 7C10 7.26522 10.1054 7.51957 10.2929 7.70711C10.4804 7.89464 10.7348 8 11 8H14.59L6.29 16.29C6.19627 16.383 6.12188 16.4936 6.07111 16.6154C6.02034 16.7373 5.9942 16.868 5.9942 17C5.9942 17.132 6.02034 17.2627 6.07111 17.3846C6.12188 17.5064 6.19627 17.617 6.29 17.71C6.38296 17.8037 6.49356 17.8781 6.61542 17.9289C6.73728 17.9797 6.86799 18.0058 7 18.0058C7.13201 18.0058 7.26272 17.9797 7.38458 17.9289C7.50644 17.8781 7.61704 17.8037 7.71 17.71L16 9.41V13C16 13.2652 16.1054 13.5196 16.2929 13.7071C16.4804 13.8946 16.7348 14 17 14C17.2652 14 17.5196 13.8946 17.7071 13.7071C17.8946 13.5196 18 13.2652 18 13V7C17.9984 6.86932 17.9712 6.74022 17.92 6.62Z" fill="black"/>
</svg>
